<?xml version="1.0" standalone="no"?>
<!DOCTYPE svg PUBLIC "-//W3C//DTD SVG 1.1//EN" "http://www.w3.org/Graphics/SVG/1.1/DTD/svg11.dtd">
<svg version="1.1" xmlns="http://www.w3.org/2000/svg" viewBox="0 0 1230 520" width="1230" height="520"><!-- svg-source:excalidraw --><metadata></metadata><defs><style class="style-fonts">
      </style></defs><g stroke-linecap="round" transform="translate(50 50) rotate(0 70 30)"><path d="M0 0 L140 0 L140 60 L0 60" stroke="none" stroke-width="0" fill="#d1d1de"></path><path d="M0 0 C30.62 0, 61.24 0, 140 0 M0 0 C52.89 0, 105.77 0, 140 0 M140 0 C140 23.49, 140 46.98, 140 60 M140 0 C140 19.3, 140 38.6, 140 60 M140 60 C96.18 60, 52.35 60, 0 60 M140 60 C111.02 60, 82.04 60, 0 60 M0 60 C0 45.37, 0 30.74, 0 0 M0 60 C0 42.1, 0 24.2, 0 0" stroke="#2d354f" stroke-width="2" fill="none"></path></g><g transform="translate(52 70) rotate(0 68 10)"><text x="68" y="14.3203125" font-family="Helvetica, sans-serif, Segoe UI Emoji" font-size="16px" fill="#2d354f" text-anchor="middle" style="white-space: pre;" direction="ltr" dominant-baseline="alphabetic">Start Application</text></g><g stroke-linecap="round" transform="translate(220 30) rotate(0 90 50)"><path d="M91 0 L180 51 L91 100 L0 51" stroke="none" stroke-width="0" fill="#d1d1de" fill-rule="evenodd"></path><path d="M91 0 C121.09 17.24, 151.18 34.49, 180 51 M91 0 C123.97 18.89, 156.94 37.78, 180 51 M180 51 C154.37 65.11, 128.74 79.22, 91 100 M180 51 C161.09 61.41, 142.18 71.82, 91 100 M91 100 C64.43 85.69, 37.85 71.38, 0 51 M91 100 C63.24 85.05, 35.47 70.1, 0 51 M0 51 C28.78 34.87, 57.57 18.74, 91 0 M0 51 C19.71 39.95, 39.43 28.9, 91 0" stroke="#2d354f" stroke-width="2" fill="none"></path></g><g transform="translate(226 70) rotate(0 84 10)"><text x="84" y="14.3203125" font-family="Helvetica, sans-serif, Segoe UI Emoji" font-size="16px" fill="#2d354f" text-anchor="middle" style="white-space: pre;" direction="ltr" dominant-baseline="alphabetic">Load Config &amp; Prompts</text></g><g stroke-linecap="round" transform="translate(440 25) rotate(0 110 55)"><path d="M111 0 L220 56 L111 110 L0 56" stroke="none" stroke-width="0" fill="#d1d1de" fill-rule="evenodd"></path><path d="M111 0 C133.04 11.33, 155.09 22.65, 220 56 M111 0 C135.32 12.49, 159.64 24.99, 220 56 M220 56 C189.13 71.29, 158.26 86.59, 111 110 M220 56 C183.86 73.91, 147.71 91.81, 111 110 M111 110 C82.16 95.97, 53.32 81.94, 0 56 M111 110 C83.75 96.74, 56.5 83.49, 0 56 M0 56 C37.72 36.97, 75.44 17.94, 111 0 M0 56 C39.35 36.15, 78.7 16.3, 111 0" stroke="#2d354f" stroke-width="2" fill="none"></path></g><g transform="translate(494 60) rotate(0 56 20)"><text x="56" y="14.3203125" font-family="Helvetica, sans-serif, Segoe UI Emoji" font-size="16px" fill="#2d354f" text-anchor="middle" style="white-space: pre;" direction="ltr" dominant-baseline="alphabetic">Check Existing</text><text x="56" y="34.3203125" font-family="Helvetica, sans-serif, Segoe UI Emoji" font-size="16px" fill="#2d354f" text-anchor="middle" style="white-space: pre;" direction="ltr" dominant-baseline="alphabetic">Output Files?</text></g><g stroke-linecap="round" transform="translate(720 10) rotate(0 120 30)"><path d="M0 0 L240 0 L240 60 L0 60" stroke="none" stroke-width="0" fill="#d1d1de"></path><path d="M0 0 C78.32 0, 156.64 0, 240 0 M0 0 C78.49 0, 156.98 0, 240 0 M240 0 C240 14.17, 240 28.35, 240 60 M240 0 C240 22.86, 240 45.73, 240 60 M240 60 C150.38 60, 60.76 60, 0 60 M240 60 C176.7 60, 113.4 60, 0 60 M0 60 C0 38.05, 0 16.1, 0 0 M0 60 C0 44.01, 0 28.01, 0 0" stroke="#2d354f" stroke-width="2" fill="none"></path></g><g transform="translate(760 20) rotate(0 80 20)"><text x="80" y="14.3203125" font-family="Helvetica, sans-serif, Segoe UI Emoji" font-size="16px" fill="#2d354f" text-anchor="middle" style="white-space: pre;" direction="ltr" dominant-baseline="alphabetic">Parse Markdown Pages</text><text x="80" y="34.3203125" font-family="Helvetica, sans-serif, Segoe UI Emoji" font-size="16px" fill="#2d354f" text-anchor="middle" style="white-space: pre;" direction="ltr" dominant-baseline="alphabetic">to RAM Cache</text></g><g stroke-linecap="round" transform="translate(720 90) rotate(0 120 30)"><path d="M0 0 L240 0 L240 60 L0 60" stroke="none" stroke-width="0" fill="#d1d1de"></path><path d="M0 0 C86.39 0, 172.78 0, 240 0 M0 0 C54.17 0, 108.34 0, 240 0 M240 0 C240 20.18, 240 40.37, 240 60 M240 0 C240 14.67, 240 29.35, 240 60 M240 60 C153.14 60, 66.28 60, 0 60 M240 60 C157.26 60, 74.52 60, 0 60 M0 60 C0 39.56, 0 19.11, 0 0 M0 60 C0 40.82, 0 21.64, 0 0" stroke="#2d354f" stroke-width="2" fill="none"></path></g><g transform="translate(784 100) rotate(0 56 20)"><text x="56" y="14.3203125" font-family="Helvetica, sans-serif, Segoe UI Emoji" font-size="16px" fill="#2d354f" text-anchor="middle" style="white-space: pre;" direction="ltr" dominant-baseline="alphabetic">Initialize RAM</text><text x="56" y="34.3203125" font-family="Helvetica, sans-serif, Segoe UI Emoji" font-size="16px" fill="#2d354f" text-anchor="middle" style="white-space: pre;" direction="ltr" dominant-baseline="alphabetic">Cache empty</text></g><g stroke-linecap="round" transform="translate(1000 50) rotate(0 110 30)"><path d="M0 0 L220 0 L220 60 L0 60" stroke="none" stroke-width="0" fill="#d1d1de"></path><path d="M0 0 C49.64 0, 99.27 0, 220 0 M0 0 C64.98 0, 129.97 0, 220 0 M220 0 C220 15.62, 220 31.24, 220 60 M220 0 C220 13.93, 220 27.86, 220 60 M220 60 C163.26 60, 106.52 60, 0 60 M220 60 C170.69 60, 121.37 60, 0 60 M0 60 C0 42.94, 0 25.88, 0 0 M0 60 C0 42.6, 0 25.2, 0 0" stroke="#2d354f" stroke-width="2" fill="none"></path></g><g transform="translate(1046 60) rotate(0 64 20)"><text x="64" y="14.3203125" font-family="Helvetica, sans-serif, Segoe UI Emoji" font-size="16px" fill="#2d354f" text-anchor="middle" style="white-space: pre;" direction="ltr" dominant-baseline="alphabetic">Phase 1: Text</text><text x="64" y="34.3203125" font-family="Helvetica, sans-serif, Segoe UI Emoji" font-size="16px" fill="#2d354f" text-anchor="middle" style="white-space: pre;" direction="ltr" dominant-baseline="alphabetic">Extraction &amp; OCR</text></g><g stroke-linecap="round"><g transform="translate(190 80) rotate(0 15 0)"><path d="M0 0 C10.53 0, 21.06 0, 30 0 M0 0 C11.47 0, 22.94 0, 30 0" stroke="#345995" stroke-width="2" fill="none"></path></g><g transform="translate(190 80) rotate(0 15 0)"><path d="M15.9 5.13 C20.85 3.33, 25.8 1.53, 30 0 M15.9 5.13 C21.29 3.17, 26.68 1.21, 30 0" stroke="#345995" stroke-width="2" fill="none"></path></g><g transform="translate(190 80) rotate(0 15 0)"><path d="M15.9 -5.13 C20.85 -3.33, 25.8 -1.53, 30 0 M15.9 -5.13 C21.29 -3.17, 26.68 -1.21, 30 0" stroke="#345995" stroke-width="2" fill="none"></path></g></g><mask></mask><g stroke-linecap="round"><g transform="translate(400 80) rotate(0 20 0)"><path d="M0 0 C13.64 0, 27.28 0, 40 0 M0 0 C9.27 0, 18.54 0, 40 0" stroke="#345995" stroke-width="2" fill="none"></path></g><g transform="translate(400 80) rotate(0 20 0)"><path d="M21.21 6.84 C27.61 4.51, 34.02 2.18, 40 0 M21.21 6.84 C25.56 5.26, 29.92 3.67, 40 0" stroke="#345995" stroke-width="2" fill="none"></path></g><g transform="translate(400 80) rotate(0 20 0)"><path d="M21.21 -6.84 C27.61 -4.51, 34.02 -2.18, 40 0 M21.21 -6.84 C25.56 -5.26, 29.92 -3.67, 40 0" stroke="#345995" stroke-width="2" fill="none"></path></g></g><mask></mask><g stroke-linecap="round"><g transform="translate(660 80) rotate(0 30 -20)"><path d="M0 0 C21.02 -14.02, 42.05 -28.03, 60 -40 M0 0 C21.72 -14.48, 43.44 -28.96, 60 -40" stroke="#345995" stroke-width="2" fill="none"></path></g><g transform="translate(660 80) rotate(0 30 -20)"><path d="M45.2 -19.85 C50.38 -26.91, 55.57 -33.97, 60 -40 M45.2 -19.85 C50.55 -27.15, 55.91 -34.44, 60 -40" stroke="#345995" stroke-width="2" fill="none"></path></g><g transform="translate(660 80) rotate(0 30 -20)"><path d="M35.71 -34.08 C44.22 -36.16, 52.73 -38.23, 60 -40 M35.71 -34.08 C44.5 -36.22, 53.29 -38.37, 60 -40" stroke="#345995" stroke-width="2" fill="none"></path></g></g><mask></mask><g transform="translate(678 25) rotate(0 12 10)"><text x="12" y="14.3203125" font-family="Helvetica, sans-serif, Segoe UI Emoji" font-size="16px" fill="#2d354f" text-anchor="middle" style="white-space: pre;" direction="ltr" dominant-baseline="alphabetic">Yes</text></g><g stroke-linecap="round"><g transform="translate(660 80) rotate(0 30 20)"><path d="M0 0 C15.88 10.59, 31.76 21.17, 60 40 M0 0 C16.18 10.78, 32.35 21.57, 60 40" stroke="#345995" stroke-width="2" fill="none"></path></g><g transform="translate(660 80) rotate(0 30 20)"><path d="M35.71 34.08 C42.14 35.65, 48.57 37.22, 60 40 M35.71 34.08 C42.26 35.68, 48.81 37.27, 60 40" stroke="#345995" stroke-width="2" fill="none"></path></g><g transform="translate(660 80) rotate(0 30 20)"><path d="M45.2 19.85 C49.11 25.19, 53.03 30.52, 60 40 M45.2 19.85 C49.19 25.29, 53.18 30.72, 60 40" stroke="#345995" stroke-width="2" fill="none"></path></g></g><mask></mask><g transform="translate(682 65) rotate(0 8 10)"><text x="8" y="14.3203125" font-family="Helvetica, sans-serif, Segoe UI Emoji" font-size="16px" fill="#2d354f" text-anchor="middle" style="white-space: pre;" direction="ltr" dominant-baseline="alphabetic">No</text></g><g stroke-linecap="round"><g transform="translate(960 40) rotate(0 20 20)"><path d="M0 0 C14.86 14.86, 29.73 29.73, 40 40 M0 0 C11.94 11.94, 23.88 23.88, 40 40" stroke="#345995" stroke-width="2" fill="none"></path></g><g transform="translate(960 40) rotate(0 20 20)"><path d="M17.34 29.43 C25.76 33.36, 34.18 37.29, 40 40 M17.34 29.43 C24.11 32.59, 30.87 35.74, 40 40" stroke="#345995" stroke-width="2" fill="none"></path></g><g transform="translate(960 40) rotate(0 20 20)"><path d="M29.43 17.34 C33.36 25.76, 37.29 34.18, 40 40 M29.43 17.34 C32.59 24.11, 35.74 30.87, 40 40" stroke="#345995" stroke-width="2" fill="none"></path></g></g><mask></mask><g stroke-linecap="round"><g transform="translate(960 120) rotate(0 20 -20)"><path d="M0 0 C8.7 -8.7, 17.4 -17.4, 40 -40 M0 0 C15.87 -15.87, 31.74 -31.74, 40 -40" stroke="#345995" stroke-width="2" fill="none"></path></g><g transform="translate(960 120) rotate(0 20 -20)"><path d="M29.43 -17.34 C31.73 -22.27, 34.03 -27.2, 40 -40 M29.43 -17.34 C33.63 -26.33, 37.82 -35.32, 40 -40" stroke="#345995" stroke-width="2" fill="none"></path></g><g transform="translate(960 120) rotate(0 20 -20)"><path d="M17.34 -29.43 C22.27 -31.73, 27.2 -34.03, 40 -40 M17.34 -29.43 C26.33 -33.63, 35.32 -37.82, 40 -40" stroke="#345995" stroke-width="2" fill="none"></path></g></g><mask></mask><g stroke-linecap="round" transform="translate(1020 205) rotate(0 90 55)"><path d="M91 0 L180 56 L91 110 L0 56" stroke="none" stroke-width="0" fill="#d1d1de" fill-rule="evenodd"></path><path d="M91 0 C123.67 20.56, 156.34 41.11, 180 56 M91 0 C118.61 17.37, 146.21 34.74, 180 56 M180 56 C149.41 74.56, 118.82 93.12, 91 110 M180 56 C145.79 76.76, 111.58 97.51, 91 110 M91 110 C67.62 96.13, 44.25 82.26, 0 56 M91 110 C58.31 90.6, 25.61 71.2, 0 56 M0 56 C28.98 38.17, 57.96 20.33, 91 0 M0 56 C22.83 41.95, 45.65 27.91, 91 0" stroke="#2d354f" stroke-width="2" fill="none"></path></g><g transform="translate(1066 240) rotate(0 44 20)"><text x="44" y="14.3203125" font-family="Helvetica, sans-serif, Segoe UI Emoji" font-size="16px" fill="#2d354f" text-anchor="middle" style="white-space: pre;" direction="ltr" dominant-baseline="alphabetic">Page cached</text><text x="44" y="34.3203125" font-family="Helvetica, sans-serif, Segoe UI Emoji" font-size="16px" fill="#2d354f" text-anchor="middle" style="white-space: pre;" direction="ltr" dominant-baseline="alphabetic">on disk?</text></g><g stroke-linecap="round"><g transform="translate(1110 110) rotate(0 0 47.5)"><path d="M0 0 C0 20.14, 0 40.28, 0 95 M0 0 C0 35.67, 0 71.33, 0 95" stroke="#345995" stroke-width="2" fill="none"></path></g><g transform="translate(1110 110) rotate(0 0 47.5)"><path d="M-8.55 71.51 C-6.74 76.49, -4.93 81.47, 0 95 M-8.55 71.51 C-5.34 80.33, -2.13 89.15, 0 95" stroke="#345995" stroke-width="2" fill="none"></path></g><g transform="translate(1110 110) rotate(0 0 47.5)"><path d="M8.55 71.51 C6.74 76.49, 4.93 81.47, 0 95 M8.55 71.51 C5.34 80.33, 2.13 89.15, 0 95" stroke="#345995" stroke-width="2" fill="none"></path></g></g><mask></mask><g stroke-linecap="round" transform="translate(730 190) rotate(0 110 30)"><path d="M0 0 L220 0 L220 60 L0 60" stroke="none" stroke-width="0" fill="#d1d1de"></path><path d="M0 0 C58.08 0, 116.16 0, 220 0 M0 0 C58.45 0, 116.89 0, 220 0 M220 0 C220 21.77, 220 43.54, 220 60 M220 0 C220 12.26, 220 24.53, 220 60 M220 60 C144.17 60, 68.34 60, 0 60 M220 60 C160.99 60, 101.99 60, 0 60 M0 60 C0 36.87, 0 13.74, 0 0 M0 60 C0 44.49, 0 28.98, 0 0" stroke="#2d354f" stroke-width="2" fill="none"></path></g><g transform="translate(760 210) rotate(0 80 10)"><text x="80" y="14.3203125" font-family="Helvetica, sans-serif, Segoe UI Emoji" font-size="16px" fill="#2d354f" text-anchor="middle" style="white-space: pre;" direction="ltr" dominant-baseline="alphabetic">Run Extraction / OCR</text></g><g stroke-linecap="round" transform="translate(730 270) rotate(0 110 30)"><path d="M0 0 L220 0 L220 60 L0 60" stroke="none" stroke-width="0" fill="#d1d1de"></path><path d="M0 0 C56.6 0, 113.21 0, 220 0 M0 0 C72.41 0, 144.81 0, 220 0 M220 0 C220 18.63, 220 37.25, 220 60 M220 0 C220 13.78, 220 27.57, 220 60 M220 60 C133.09 60, 46.19 60, 0 60 M220 60 C155.9 60, 91.79 60, 0 60 M0 60 C0 44.88, 0 29.75, 0 0 M0 60 C0 46.87, 0 33.74, 0 0" stroke="#2d354f" stroke-width="2" fill="none"></path></g><g transform="translate(756 280) rotate(0 84 20)"><text x="84" y="14.3203125" font-family="Helvetica, sans-serif, Segoe UI Emoji" font-size="16px" fill="#2d354f" text-anchor="middle" style="white-space: pre;" direction="ltr" dominant-baseline="alphabetic">Skip Extraction, Load</text><text x="84" y="34.3203125" font-family="Helvetica, sans-serif, Segoe UI Emoji" font-size="16px" fill="#2d354f" text-anchor="middle" style="white-space: pre;" direction="ltr" dominant-baseline="alphabetic">OCR text from cache</text></g><g stroke-linecap="round" transform="translate(430 190) rotate(0 120 30)"><path d="M0 0 L240 0 L240 60 L0 60" stroke="none" stroke-width="0" fill="#d1d1de"></path><path d="M0 0 C86.3 0, 172.6 0, 240 0 M0 0 C80.65 0, 161.3 0, 240 0 M240 0 C240 21.8, 240 43.59, 240 60 M240 0 C240 18.26, 240 36.51, 240 60 M240 60 C190.34 60, 140.68 60, 0 60 M240 60 C145.26 60, 50.51 60, 0 60 M0 60 C0 41.71, 0 23.41, 0 0 M0 60 C0 39.39, 0 18.77, 0 0" stroke="#2d354f" stroke-width="2" fill="none"></path></g><g transform="translate(454 200) rotate(0 96 20)"><text x="96" y="14.3203125" font-family="Helvetica, sans-serif, Segoe UI Emoji" font-size="16px" fill="#2d354f" text-anchor="middle" style="white-space: pre;" direction="ltr" dominant-baseline="alphabetic">Save extracted OCR</text><text x="96" y="34.3203125" font-family="Helvetica, sans-serif, Segoe UI Emoji" font-size="16px" fill="#2d354f" text-anchor="middle" style="white-space: pre;" direction="ltr" dominant-baseline="alphabetic">text to disk immediately</text></g><g stroke-linecap="round" transform="translate(200 230) rotate(0 100 30)"><path d="M0 0 L200 0 L200 60 L0 60" stroke="none" stroke-width="0" fill="#d1d1de"></path><path d="M0 0 C43.63 0, 87.25 0, 200 0 M0 0 C70.74 0, 141.47 0, 200 0 M200 0 C200 19.68, 200 39.36, 200 60 M200 0 C200 12.78, 200 25.56, 200 60 M200 60 C124.52 60, 49.03 60, 0 60 M200 60 C146.13 60, 92.26 60, 0 60 M0 60 C0 42.08, 0 24.16, 0 0 M0 60 C0 44.68, 0 29.36, 0 0" stroke="#2d354f" stroke-width="2" fill="none"></path></g><g transform="translate(200 250) rotate(0 100 10)"><text x="100" y="14.3203125" font-family="Helvetica, sans-serif, Segoe UI Emoji" font-size="16px" fill="#2d354f" text-anchor="middle" style="white-space: pre;" direction="ltr" dominant-baseline="alphabetic">Phase 2: Model Transition</text></g><g stroke-linecap="round" transform="translate(20 230) rotate(0 80 30)"><path d="M0 0 L160 0 L160 60 L0 60" stroke="none" stroke-width="0" fill="#d1d1de"></path><path d="M0 0 C42 0, 83.99 0, 160 0 M0 0 C44.91 0, 89.83 0, 160 0 M160 0 C160 17.96, 160 35.93, 160 60 M160 0 C160 16.2, 160 32.4, 160 60 M160 60 C111.45 60, 62.9 60, 0 60 M160 60 C123.83 60, 87.67 60, 0 60 M0 60 C0 43.33, 0 26.65, 0 0 M0 60 C0 39.14, 0 18.29, 0 0" stroke="#2d354f" stroke-width="2" fill="none"></path></g><g transform="translate(20 240) rotate(0 80 20)"><text x="80" y="14.3203125" font-family="Helvetica, sans-serif, Segoe UI Emoji" font-size="16px" fill="#2d354f" text-anchor="middle" style="white-space: pre;" direction="ltr" dominant-baseline="alphabetic">Phase 3: Translation</text><text x="80" y="34.3203125" font-family="Helvetica, sans-serif, Segoe UI Emoji" font-size="16px" fill="#2d354f" text-anchor="middle" style="white-space: pre;" direction="ltr" dominant-baseline="alphabetic">&amp; Review</text></g><g stroke-linecap="round"><g transform="translate(1020 260) rotate(0 -35 -20)"><path d="M0 0 C-19.72 -11.27, -39.44 -22.54, -70 -40 M0 0 C-19.69 -11.25, -39.38 -22.5, -70 -40" stroke="#345995" stroke-width="2" fill="none"></path></g><g transform="translate(1020 260) rotate(0 -35 -20)"><path d="M-45.36 -35.77 C-52.3 -36.96, -59.24 -38.15, -70 -40 M-45.36 -35.77 C-52.29 -36.96, -59.22 -38.15, -70 -40" stroke="#345995" stroke-width="2" fill="none"></path></g><g transform="translate(1020 260) rotate(0 -35 -20)"><path d="M-53.85 -20.92 C-58.4 -26.3, -62.95 -31.67, -70 -40 M-53.85 -20.92 C-58.39 -26.29, -62.93 -31.65, -70 -40" stroke="#345995" stroke-width="2" fill="none"></path></g></g><mask></mask><g transform="translate(977 205) rotate(0 8 10)"><text x="8" y="14.3203125" font-family="Helvetica, sans-serif, Segoe UI Emoji" font-size="16px" fill="#2d354f" text-anchor="middle" style="white-space: pre;" direction="ltr" dominant-baseline="alphabetic">No</text></g><g stroke-linecap="round"><g transform="translate(1020 260) rotate(0 -35 20)"><path d="M0 0 C-26.85 15.34, -53.71 30.69, -70 40 M0 0 C-24.97 14.27, -49.94 28.54, -70 40" stroke="#345995" stroke-width="2" fill="none"></path></g><g transform="translate(1020 260) rotate(0 -35 20)"><path d="M-53.85 20.92 C-60.04 28.24, -66.24 35.56, -70 40 M-53.85 20.92 C-59.61 27.73, -65.37 34.53, -70 40" stroke="#345995" stroke-width="2" fill="none"></path></g><g transform="translate(1020 260) rotate(0 -35 20)"><path d="M-45.36 35.77 C-54.81 37.39, -64.26 39.01, -70 40 M-45.36 35.77 C-54.15 37.28, -62.94 38.79, -70 40" stroke="#345995" stroke-width="2" fill="none"></path></g></g><mask></mask><g transform="translate(973 245) rotate(0 12 10)"><text x="12" y="14.3203125" font-family="Helvetica, sans-serif, Segoe UI Emoji" font-size="16px" fill="#2d354f" text-anchor="middle" style="white-space: pre;" direction="ltr" dominant-baseline="alphabetic">Yes</text></g><g stroke-linecap="round"><g transform="translate(730 220) rotate(0 -30 0)"><path d="M0 0 C-22.32 0, -44.64 0, -60 0 M0 0 C-22.26 0, -44.52 0, -60 0" stroke="#345995" stroke-width="2" fill="none"></path></g><g transform="translate(730 220) rotate(0 -30 0)"><path d="M-36.51 -8.55 C-45.25 -5.37, -53.98 -2.19, -60 0 M-36.51 -8.55 C-45.22 -5.38, -53.94 -2.21, -60 0" stroke="#345995" stroke-width="2" fill="none"></path></g><g transform="translate(730 220) rotate(0 -30 0)"><path d="M-36.51 8.55 C-45.25 5.37, -53.98 2.19, -60 0 M-36.51 8.55 C-45.22 5.38, -53.94 2.21, -60 0" stroke="#345995" stroke-width="2" fill="none"></path></g></g><mask></mask><g stroke-linecap="round"><g transform="translate(430 220) rotate(0 -15 20)"><path d="M0 0 C-6.48 8.64, -12.96 17.28, -30 40 M0 0 C-8.79 11.72, -17.58 23.44, -30 40" stroke="#345995" stroke-width="2" fill="none"></path></g><g transform="translate(430 220) rotate(0 -15 20)"><path d="M-22.75 16.08 C-24.31 21.24, -25.88 26.41, -30 40 M-22.75 16.08 C-24.87 23.09, -27 30.1, -30 40" stroke="#345995" stroke-width="2" fill="none"></path></g><g transform="translate(430 220) rotate(0 -15 20)"><path d="M-9.06 26.34 C-13.59 29.29, -18.11 32.24, -30 40 M-9.06 26.34 C-15.2 30.34, -21.33 34.34, -30 40" stroke="#345995" stroke-width="2" fill="none"></path></g></g><mask></mask><g stroke-linecap="round"><g transform="translate(730 300) rotate(0 -165 -20)"><path d="M0 0 C-111.4 -13.5, -222.81 -27.01, -330 -40 M0 0 C-106.04 -12.85, -212.08 -25.71, -330 -40" stroke="#345995" stroke-width="2" fill="none"></path></g><g transform="translate(730 300) rotate(0 -165 -20)"><path d="M-305.65 -45.66 C-313.87 -43.75, -322.09 -41.84, -330 -40 M-305.65 -45.66 C-313.47 -43.84, -321.3 -42.02, -330 -40" stroke="#345995" stroke-width="2" fill="none"></path></g><g transform="translate(730 300) rotate(0 -165 -20)"><path d="M-307.71 -28.68 C-315.23 -32.5, -322.76 -36.32, -330 -40 M-307.71 -28.68 C-314.87 -32.32, -322.03 -35.96, -330 -40" stroke="#345995" stroke-width="2" fill="none"></path></g></g><mask></mask><g stroke-linecap="round"><g transform="translate(200 260) rotate(0 -10 0)"><path d="M0 0 C-5.31 0, -10.61 0, -20 0 M0 0 C-6.99 0, -13.99 0, -20 0" stroke="#345995" stroke-width="2" fill="none"></path></g><g transform="translate(200 260) rotate(0 -10 0)"><path d="M-10.6 -3.42 C-13.1 -2.51, -15.59 -1.61, -20 0 M-10.6 -3.42 C-13.89 -2.22, -17.17 -1.03, -20 0" stroke="#345995" stroke-width="2" fill="none"></path></g><g transform="translate(200 260) rotate(0 -10 0)"><path d="M-10.6 3.42 C-13.1 2.51, -15.59 1.61, -20 0 M-10.6 3.42 C-13.89 2.22, -17.17 1.03, -20 0" stroke="#345995" stroke-width="2" fill="none"></path></g></g><mask></mask><g stroke-linecap="round" transform="translate(10 385) rotate(0 90 55)"><path d="M91 0 L180 56 L91 110 L0 56" stroke="none" stroke-width="0" fill="#d1d1de" fill-rule="evenodd"></path><path d="M91 0 C112.14 13.3, 133.29 26.61, 180 56 M91 0 C119.66 18.04, 148.33 36.07, 180 56 M180 56 C145 77.24, 110 98.47, 91 110 M180 56 C159.7 68.32, 139.41 80.63, 91 110 M91 110 C71.75 98.58, 52.5 87.16, 0 56 M91 110 C59.16 91.11, 27.32 72.21, 0 56 M0 56 C34.38 34.84, 68.76 13.68, 91 0 M0 56 C36.18 33.74, 72.36 11.47, 91 0" stroke="#2d354f" stroke-width="2" fill="none"></path></g><g transform="translate(40 420) rotate(0 60 20)"><text x="60" y="14.3203125" font-family="Helvetica, sans-serif, Segoe UI Emoji" font-size="16px" fill="#2d354f" text-anchor="middle" style="white-space: pre;" direction="ltr" dominant-baseline="alphabetic">Page translated</text><text x="60" y="34.3203125" font-family="Helvetica, sans-serif, Segoe UI Emoji" font-size="16px" fill="#2d354f" text-anchor="middle" style="white-space: pre;" direction="ltr" dominant-baseline="alphabetic">on disk?</text></g><g stroke-linecap="round"><g transform="translate(100 290) rotate(0 0 47.5)"><path d="M0 0 C0 31.79, 0 63.57, 0 95 M0 0 C0 19.39, 0 38.79, 0 95" stroke="#345995" stroke-width="2" fill="none"></path></g><g transform="translate(100 290) rotate(0 0 47.5)"><path d="M-8.55 71.51 C-5.69 79.37, -2.83 87.23, 0 95 M-8.55 71.51 C-6.8 76.3, -5.06 81.1, 0 95" stroke="#345995" stroke-width="2" fill="none"></path></g><g transform="translate(100 290) rotate(0 0 47.5)"><path d="M8.55 71.51 C5.69 79.37, 2.83 87.23, 0 95 M8.55 71.51 C6.8 76.3, 5.06 81.1, 0 95" stroke="#345995" stroke-width="2" fill="none"></path></g></g><mask></mask><g stroke-linecap="round" transform="translate(260 370) rotate(0 120 30)"><path d="M0 0 L240 0 L240 60 L0 60" stroke="none" stroke-width="0" fill="#d1d1de"></path><path d="M0 0 C50.16 0, 100.31 0, 240 0 M0 0 C81.17 0, 162.35 0, 240 0 M240 0 C240 15.09, 240 30.18, 240 60 M240 0 C240 12.65, 240 25.3, 240 60 M240 60 C168.61 60, 97.23 60, 0 60 M240 60 C184.32 60, 128.64 60, 0 60 M0 60 C0 41.76, 0 23.52, 0 0 M0 60 C0 37.46, 0 14.92, 0 0" stroke="#2d354f" stroke-width="2" fill="none"></path></g><g transform="translate(292 380) rotate(0 88 20)"><text x="88" y="14.3203125" font-family="Helvetica, sans-serif, Segoe UI Emoji" font-size="16px" fill="#2d354f" text-anchor="middle" style="white-space: pre;" direction="ltr" dominant-baseline="alphabetic">Skip Translation, Load</text><text x="88" y="34.3203125" font-family="Helvetica, sans-serif, Segoe UI Emoji" font-size="16px" fill="#2d354f" text-anchor="middle" style="white-space: pre;" direction="ltr" dominant-baseline="alphabetic">from cache</text></g><g stroke-linecap="round" transform="translate(270 450) rotate(0 110 30)"><path d="M0 0 L220 0 L220 60 L0 60" stroke="none" stroke-width="0" fill="#d1d1de"></path><path d="M0 0 C60.07 0, 120.14 0, 220 0 M0 0 C72.23 0, 144.47 0, 220 0 M220 0 C220 16.19, 220 32.38, 220 60 M220 0 C220 19.14, 220 38.28, 220 60 M220 60 C157.53 60, 95.05 60, 0 60 M220 60 C165.36 60, 110.71 60, 0 60 M0 60 C0 43.43, 0 26.87, 0 0 M0 60 C0 36.83, 0 13.65, 0 0" stroke="#2d354f" stroke-width="2" fill="none"></path></g><g transform="translate(284 470) rotate(0 96 10)"><text x="96" y="14.3203125" font-family="Helvetica, sans-serif, Segoe UI Emoji" font-size="16px" fill="#2d354f" text-anchor="middle" style="white-space: pre;" direction="ltr" dominant-baseline="alphabetic">Run Translation &amp; Review</text></g><g stroke-linecap="round" transform="translate(550 450) rotate(0 120 30)"><path d="M0 0 L240 0 L240 60 L0 60" stroke="none" stroke-width="0" fill="#d1d1de"></path><path d="M0 0 C77.76 0, 155.52 0, 240 0 M0 0 C90.15 0, 180.3 0, 240 0 M240 0 C240 16.35, 240 32.7, 240 60 M240 0 C240 14, 240 28.01, 240 60 M240 60 C183.14 60, 126.29 60, 0 60 M240 60 C174.68 60, 109.36 60, 0 60 M0 60 C0 44.05, 0 28.11, 0 0 M0 60 C0 41.27, 0 22.55, 0 0" stroke="#2d354f" stroke-width="2" fill="none"></path></g><g transform="translate(590 460) rotate(0 80 20)"><text x="80" y="14.3203125" font-family="Helvetica, sans-serif, Segoe UI Emoji" font-size="16px" fill="#2d354f" text-anchor="middle" style="white-space: pre;" direction="ltr" dominant-baseline="alphabetic">Save translated page</text><text x="80" y="34.3203125" font-family="Helvetica, sans-serif, Segoe UI Emoji" font-size="16px" fill="#2d354f" text-anchor="middle" style="white-space: pre;" direction="ltr" dominant-baseline="alphabetic">to disk immediately</text></g><g stroke-linecap="round" transform="translate(860 410) rotate(0 110 30)"><path d="M0 0 L220 0 L220 60 L0 60" stroke="none" stroke-width="0" fill="#d1d1de"></path><path d="M0 0 C68.8 0, 137.6 0, 220 0 M0 0 C83.7 0, 167.39 0, 220 0 M220 0 C220 15.46, 220 30.93, 220 60 M220 0 C220 23.44, 220 46.89, 220 60 M220 60 C158.46 60, 96.93 60, 0 60 M220 60 C155.64 60, 91.28 60, 0 60 M0 60 C0 41.8, 0 23.6, 0 0 M0 60 C0 47.68, 0 35.36, 0 0" stroke="#2d354f" stroke-width="2" fill="none"></path></g><g transform="translate(878 430) rotate(0 92 10)"><text x="92" y="14.3203125" font-family="Helvetica, sans-serif, Segoe UI Emoji" font-size="16px" fill="#2d354f" text-anchor="middle" style="white-space: pre;" direction="ltr" dominant-baseline="alphabetic">Loop Next Page / Finish</text></g><g stroke-linecap="round"><g transform="translate(190 440) rotate(0 35 -20)"><path d="M0 0 C15.74 -9, 31.49 -17.99, 70 -40 M0 0 C17.48 -9.99, 34.96 -19.98, 70 -40" stroke="#345995" stroke-width="2" fill="none"></path></g><g transform="translate(190 440) rotate(0 35 -20)"><path d="M53.85 -20.92 C57.48 -25.21, 61.11 -29.5, 70 -40 M53.85 -20.92 C57.88 -25.69, 61.91 -30.45, 70 -40" stroke="#345995" stroke-width="2" fill="none"></path></g><g transform="translate(190 440) rotate(0 35 -20)"><path d="M45.36 -35.77 C50.9 -36.72, 56.44 -37.67, 70 -40 M45.36 -35.77 C51.51 -36.83, 57.67 -37.88, 70 -40" stroke="#345995" stroke-width="2" fill="none"></path></g></g><mask></mask><g transform="translate(213 385) rotate(0 12 10)"><text x="12" y="14.3203125" font-family="Helvetica, sans-serif, Segoe UI Emoji" font-size="16px" fill="#2d354f" text-anchor="middle" style="white-space: pre;" direction="ltr" dominant-baseline="alphabetic">Yes</text></g><g stroke-linecap="round"><g transform="translate(190 440) rotate(0 40 20)"><path d="M0 0 C26.88 13.44, 53.76 26.88, 80 40 M0 0 C31.43 15.71, 62.86 31.43, 80 40" stroke="#345995" stroke-width="2" fill="none"></path></g><g transform="translate(190 440) rotate(0 40 20)"><path d="M55.16 37.14 C63.51 38.1, 71.85 39.06, 80 40 M55.16 37.14 C64.92 38.26, 74.68 39.39, 80 40" stroke="#345995" stroke-width="2" fill="none"></path></g><g transform="translate(190 440) rotate(0 40 20)"><path d="M62.81 21.85 C68.59 27.95, 74.36 34.05, 80 40 M62.81 21.85 C69.56 28.98, 76.32 36.11, 80 40" stroke="#345995" stroke-width="2" fill="none"></path></g></g><mask></mask><g transform="translate(222 425) rotate(0 8 10)"><text x="8" y="14.3203125" font-family="Helvetica, sans-serif, Segoe UI Emoji" font-size="16px" fill="#2d354f" text-anchor="middle" style="white-space: pre;" direction="ltr" dominant-baseline="alphabetic">No</text></g><g stroke-linecap="round"><g transform="translate(490 480) rotate(0 30 0)"><path d="M0 0 C23.64 0, 47.27 0, 60 0 M0 0 C23 0, 46.01 0, 60 0" stroke="#345995" stroke-width="2" fill="none"></path></g><g transform="translate(490 480) rotate(0 30 0)"><path d="M36.51 8.55 C45.76 5.18, 55.02 1.81, 60 0 M36.51 8.55 C45.51 5.27, 54.52 1.99, 60 0" stroke="#345995" stroke-width="2" fill="none"></path></g><g transform="translate(490 480) rotate(0 30 0)"><path d="M36.51 -8.55 C45.76 -5.18, 55.02 -1.81, 60 0 M36.51 -8.55 C45.51 -5.27, 54.52 -1.99, 60 0" stroke="#345995" stroke-width="2" fill="none"></path></g></g><mask></mask><g stroke-linecap="round"><g transform="translate(790 480) rotate(0 35 -20)"><path d="M0 0 C20.4 -11.66, 40.79 -23.31, 70 -40 M0 0 C17.11 -9.78, 34.23 -19.56, 70 -40" stroke="#345995" stroke-width="2" fill="none"></path></g><g transform="translate(790 480) rotate(0 35 -20)"><path d="M53.85 -20.92 C58.55 -26.48, 63.26 -32.04, 70 -40 M53.85 -20.92 C57.8 -25.59, 61.74 -30.25, 70 -40" stroke="#345995" stroke-width="2" fill="none"></path></g><g transform="translate(790 480) rotate(0 35 -20)"><path d="M45.36 -35.77 C52.54 -37, 59.72 -38.23, 70 -40 M45.36 -35.77 C51.38 -36.8, 57.41 -37.84, 70 -40" stroke="#345995" stroke-width="2" fill="none"></path></g></g><mask></mask><g stroke-linecap="round"><g transform="translate(500 400) rotate(0 180 20)"><path d="M0 0 C79.44 8.83, 158.87 17.65, 360 40 M0 0 C127.2 14.13, 254.39 28.27, 360 40" stroke="#345995" stroke-width="2" fill="none"></path></g><g transform="translate(500 400) rotate(0 180 20)"><path d="M335.71 45.9 C341.07 44.6, 346.43 43.3, 360 40 M335.71 45.9 C344.29 43.82, 352.87 41.73, 360 40" stroke="#345995" stroke-width="2" fill="none"></path></g><g transform="translate(500 400) rotate(0 180 20)"><path d="M337.6 28.91 C342.54 31.36, 347.48 33.8, 360 40 M337.6 28.91 C345.51 32.83, 353.43 36.75, 360 40" stroke="#345995" stroke-width="2" fill="none"></path></g></g><mask></mask></svg>